<svg version="1.1" viewBox="0 0 256.87 39.981" xmlns="http://www.w3.org/2000/svg">
 <title>primeng-logo-horizontal</title>
 <g transform="translate(.21582 -1.5094)">
  <g id="a" transform="translate(-59.405)">
   <g id="b">
    <g transform="translate(59.19 1.5094)" fill-opacity=".87843" stroke-opacity="0">
     <path d="m17.814 39.911c-0.13912-0.020422-0.59441-0.086086-1.0118-0.14592-6.2447-0.89531-11.947-5.1287-14.774-10.969-4.7706-9.8533-0.8231-21.649 8.9016-26.6 2.526-1.286 5.0657-1.9513 8.124-2.1282l1.0876-0.062917v39.971l-1.0371-0.01378c-0.57038-0.0076-1.1509-0.03049-1.29-0.05091z" fill="#6097ba" style="paint-order:stroke fill markers"/>
     <path d="m20.141 20.016v-19.96l0.73353 0.032809c3.903 0.17457 8.0973 1.7696 11.205 4.2612 3.8712 3.1034 6.4292 7.4555 7.2923 12.407 0.29759 1.7072 0.32679 4.4985 0.06457 6.1718-1.3913 8.8784-8.2089 15.67-16.954 16.89-0.62419 0.08706-1.4065 0.15829-1.7385 0.15829h-0.60358z" fill="#457b9d" style="paint-order:stroke fill markers"/>
    </g>
    <text transform="scale(1.0695 .93504)" x="66.277122" y="34.630402" fill="#14213d" font-family="Bahnschrift" font-size="46.326px" stroke-width="1.1581" style="line-height:1.75;mix-blend-mode:normal" xml:space="preserve"><tspan x="66.277122" y="34.630402" stroke-width="1.1581">c</tspan></text>
    <g transform="translate(59.611 1.4392)" fill="#f4e3d7">
     <g transform="scale(-1.0695 .93504)" aria-label="c">
      <path d="m-13.685 33.711c-3.1419 0.05999-6.5523-1.0285-8.3821-3.7348-1.6299-2.2732-1.8516-5.1567-1.7742-7.8649-0.01052-2.6771-0.13997-5.4984 1.1989-7.9214 1.4121-2.8258 4.536-4.3845 7.5966-4.5797 3.581-0.32542 7.6604 0.64764 9.866 3.6975-1.1084 0.99528-2.2168 1.9906-3.3251 2.9858-2.1023-2.5103-6.1968-3.1893-8.8652-1.2095-1.6783 1.2988-1.9425 3.5376-1.8566 5.5138 0.07662 2.22-0.35212 4.6327 0.95569 6.5964 1.5271 2.2409 4.7582 2.5999 7.1232 1.6262 1.0585-0.37173 1.9726-1.3138 2.6959-1.9575 1.0907 1.0536 2.1815 2.1073 3.2722 3.1609-1.9423 2.6347-5.3483 3.6946-8.5051 3.687z" fill="#f4e3d7" stroke-width="1.1581"/>
     </g>
     <path d="m19.764 15.29c-0.93503-1.4077-2.607-2.0803-4.2356-2.2435 0.0458-0.92402 0.15598-2.0136 1.1196-2.4494 0.93399-0.44646 1.9414-1.0573 3.0069-0.8831 1.6963 0.6444 3.254 1.6952 4.3119 3.1875-0.40908 0.6927-0.92394 1.4112-1.7926 1.5164-1.0679-0.19319-1.4388 1.8755-2.1402 1.3622-0.08806-0.16447-0.17462-0.32971-0.27005-0.49009z" stroke-opacity="0" style="paint-order:stroke fill markers"/>
    </g>
    <path d="m84.889 10.109c-1.6739 0-3.1676 0.20425-4.4883 0.60352 0.01733 0.02166 0.03599 0.04223 0.05273 0.06445 0.05197 0.06897 0.07032 0.1584 0.15234 0.20508 0.24389 0.24046 0.48892 0.48208 0.7207 0.73438 0.08298 0.0852 0.16158 0.15013 0.25586 0.22266 0.04518 0.03476 0.10124 0.05889 0.13672 0.10352 0.03756 0.04725 0.0659 0.1014 0.0957 0.1543 0.33058 0.08514 0.66708 0.15244 0.97852 0.29688 0.09942 0.04611 0.15772 0.1588 0.26562 0.19141 0.21178 0.14116 0.64518 0.40495 0.73438 0.64062 0.04381 0.0266 0.09853 0.04031 0.13086 0.08008 0.07772 0.09559 0.13275 0.20807 0.19141 0.31641 0.0059 0.01096 0.0014 0.02466 2e-3 0.03711 1.59e-4 0.0039-1.68e-4 0.0078 0 0.01172 0.19272 0.15026 0.38612 0.30042 0.57227 0.45898 0.09367-0.0024 0.17564-0.01758 0.27148-0.01758 1.0322 0 2.025 0.1896 2.9766 0.57031 0.95153 0.3807 1.7806 0.92389 2.4902 1.6289l3.5566-2.791c-0.61318-0.74731-1.3796-1.3826-2.2989-1.9043-0.91928-0.52171-1.9579-0.91569-3.1191-1.1836-1.1451-0.28201-2.3714-0.42383-3.6777-0.42383zm-5.5977 1.0137c-0.0104 4e-3 -0.02084 0.0078-0.03125 0.01172 0.0085 6.73e-4 0.01692 0.0013 0.02539 0.0019 2e-3 -0.0056 0.0039-0.0083 0.0059-0.01367zm3.8262 2.8223c0.0258 0.01596 0.04345 0.04258 0.06641 0.0625 0.02075 3.67e-4 0.03208 0.0081 0.05078 0.0098-0.03843-0.02513-0.07833-0.04775-0.11719-0.07226zm0.21875 0.15234c0.02758 0.0262 0.06551 0.03863 0.09766 0.05859-2.02e-4 -0.0046 2.07e-4 -0.0091 0-0.01367-0.02313-0.01639-0.04888-0.02887-0.07227-0.04492-0.0093-5.61e-4 -0.03984-0.01373-0.02539 0zm-8.5117 1.3066c-0.52543 1.2037-0.79688 2.5796-0.79688 4.1387v2.9766c0.06773-0.0099 0.13468-0.02301 0.20312-0.02734 0.10884-0.0069 0.20929 0.0019 0.31836 0.0078 0.03611 0.0032 0.07333 0.01327 0.10938 0.0098 0.01422-0.0015 0.0095-0.03391 0.02344-0.03711 0.1969-0.04521 0.35358-0.05683 0.55078-0.04492 0.23655 0.02767 0.47869 0.01083 0.7168 0.0098 0.34124 1.26e-4 0.68219 1.82e-4 1.0234 0 0.28948-0.02499 0.56918 0.07496 0.85547 0.08984 0.07484 0.0039 0.14977-0.0059 0.22461-0.0098 0.30225-0.02286 0.60542-0.01115 0.9082-0.0078v-2.9668c0-0.88723 0.15413-1.6625 0.44336-2.3398-0.0211-0.01086-0.06304-0.03154-0.07031-0.03516-0.03973-0.03542-0.06686-0.08175-0.09961-0.12305-0.11708-0.01824-0.23377-0.03715-0.35156-0.05273-0.41601-0.05503-0.29876-0.01243-0.78711-0.10742-0.38751-0.07537-0.76312-0.21929-1.1191-0.38672-0.63293-0.28566-1.2848-0.55482-1.8535-0.95898-0.04526-0.03242-0.08603-0.07466-0.13672-0.09766-0.04847-0.022-0.10322-0.02019-0.1543-0.03516-0.0026-7.51e-4 -0.0052-0.0012-0.0078-2e-3zm2.127 0.23047c-0.04554 7.7e-5 -0.08974 0.01188-0.13477 0.01758 0.15041 0.06784 0.29955 0.13951 0.44922 0.20703 0.25537 0.12174 0.52385 0.21834 0.79883 0.28906-0.07863-0.02609-0.14149-0.04699-0.25195-0.10156-0.09119-0.05487-0.18686-0.10694-0.27539-0.16602-0.08919-0.05952-0.1639-0.13744-0.25391-0.19531-0.04426-0.0039-0.08861 4.55e-4 -0.13281-0.0059-0.0011-2.5e-4 -0.19722-0.04492-0.19922-0.04492zm2.1855 0.1875c9.7e-4 0.0031-1e-3 0.0067 0 0.0098 9e-3 0.02678 0.01539 0.01642 0.02148-0.0059-0.0072-6.66e-4 -0.01427-0.0032-0.02148-0.0039zm0.20117 0.02344c-0.0024 0.06665-0.0086 0.17656-0.01367 0.27734h2e-3c-5.16e-4 0.01291 4.07e-4 -0.0013 0.01563-0.27539-0.0014-6.3e-5 -0.0025-0.0019-0.0039-2e-3zm0.67578 0.24219c-7e-3 0.0073-0.01407 0.01467-0.02148 0.02148 0.01376-6.25e-4 0.02729-0.0031 0.04102-0.0039-0.0064-6e-3 -0.01307-0.01166-0.01953-0.01758zm-5.0391 7.0234c-0.04859 0.01202-0.09014 0.04435-0.13867 0.05664-0.19926 0.05048-0.18467 0.04639-0.32617 0.0332-0.12923-8e-3 -0.25144-0.01675-0.38086 2e-3 -0.03252 0.0046-0.06515 0.01036-0.09766 0.01563 0.0085 1.9901 0.43119 3.6918 1.2773 5.1016 0.85477 1.4241 2.0884 2.5105 3.7012 3.2578 1.6289 0.74732 3.5888 1.1211 5.8789 1.1211 1.2902 0 2.5073-0.13444 3.6523-0.40234 1.1612-0.2679 2.2018-0.65645 3.1211-1.1641 0.91928-0.52171 1.6933-1.1496 2.3223-1.8828l-3.5566-3.002c-0.69349 0.74732-1.5153 1.3255-2.4668 1.7344-0.95153 0.40891-1.9517 0.61327-3 0.61328-1.9192-2e-6 -3.4029-0.47325-4.4512-1.418-1.0218-0.93522-1.5366-2.2578-1.5469-3.9668-0.29204-0.0031-0.58336-0.01419-0.875 0.0078-0.18863 0.0089-0.35856 0.01066-0.54688-0.01563-0.24193-0.03379-0.10685-0.04171-0.39258-0.06445-0.0581-0.0047-0.11749 0.0019-0.17578 2e-3 -0.34006 2e-4 -0.67948-0.0018-1.0195-2e-3 -0.25572 0.0014-0.51539 0.01978-0.76953-0.0098-0.01519-0.0013-0.20258-0.01918-0.20898-0.01758z" fill="#14213d" style="mix-blend-mode:normal"/>
   </g>
  </g>
  <text transform="scale(.94778 1.0551)" x="42.222237" y="30.753752" fill="#ffffff" font-family="Calibri" font-size="33.883px" font-weight="bold" letter-spacing="-1.3765px" stroke-width=".5446" style="line-height:1.25" xml:space="preserve"><tspan x="42.222237" y="30.753752" fill="#ffffff" font-size="33.883px" stroke-width=".5446">CORPORATE</tspan></text>
  <text transform="scale(.94283 1.0606)" x="202.99986" y="30.848925" fill="#6097bb" fill-opacity=".87843" font-family="Calibri" font-size="33.883px" font-weight="bold" letter-spacing="0px" stroke-width=".48881" style="line-height:0" xml:space="preserve"><tspan x="202.99986" y="30.848925" fill="#6097bb" fill-opacity=".87843" font-family="Calibri" font-size="33.883px" font-weight="bold" stroke-width=".48881">HELP</tspan></text>
 </g>
</svg>
